<svg xmlns="http://www.w3.org/2000/svg" viewBox="0 0 64.2 80.2"><defs><style>.a{fill:#fff;}</style></defs><title>account</title><path d="M32,48H52.5c9.1,0,13.3,5.4,11.1,14.4A17.9,17.9,0,0,1,53.5,74.7c-14.3,7.3-28.8,7.4-43,0C4.1,71.4-.1,66.1,0,58.4S3.4,48.1,10.1,48,24.7,48,32,48Zm-.2,27.1c6.2-1.8,12.4-3,18.1-5.4a16.2,16.2,0,0,0,7.2-7.2C60,57,57.9,54,51.8,54H12.3C6.1,54,4,56.9,6.9,62.4c1.5,2.9,4.2,6,7.1,7.2C19.5,72.1,25.6,73.3,31.8,75.1Z"/><path d="M52,20.2A20,20,0,1,1,32.2,0,20.1,20.1,0,0,1,52,20.2ZM32.4,6A14.2,14.2,0,0,0,18,19.6,14.2,14.2,0,0,0,31.6,34,14.2,14.2,0,0,0,46,20.4,14.1,14.1,0,0,0,32.4,6Z"/><path class="a" d="M31.8,75.1c-6.2-1.8-12.3-3-17.8-5.5-2.9-1.2-5.6-4.3-7.1-7.2C4,56.9,6.1,54,12.3,54H51.8c6.1,0,8.2,3,5.3,8.5a16.2,16.2,0,0,1-7.2,7.2C44.2,72.1,38,73.3,31.8,75.1Z"/><path class="a" d="M32.4,6A14.1,14.1,0,0,1,46,20.4,14.2,14.2,0,0,1,31.6,34,14.2,14.2,0,0,1,18,19.6,14.2,14.2,0,0,1,32.4,6Z"/></svg>