<svg xmlns="http://www.w3.org/2000/svg" viewBox="0 0 94.4 95.2"><title>graph</title><path d="M0,45.2C0,32.9.1,20.6,0,8.3,0,4.1.8.5,5.8,0s6.5,3.1,7.3,7.2c4.1,20.3,8.1,40.7,12.2,61a8.8,8.8,0,0,0,.7,2.9,29.7,29.7,0,0,0,2.7,3.5c.9-1.1,2.2-2,2.5-3.3,1.5-5.2,2.8-10.6,4.1-15.9s3.4-13.2,5-19.8c.9-3.6,2.9-5.8,7-5.8s6.1,2.1,7,5.8c1.6,6.6,3.2,13.2,5,19.8.5,1.6,2.1,2.9,3.1,4.3,1-1.4,2.4-2.6,2.8-4.2,2.7-10.1,5.1-20.3,7.9-30.3.4-1.6,2.1-2.8,3.2-4.1.3,1.7,1.3,3.5.9,5.1-2.5,10.7-5.3,21.3-7.9,31.9-.9,3.6-2.8,5.9-6.9,6s-6.3-2.2-7.2-6.1c-1.6-6.6-3.2-13.2-5.1-19.8-.5-1.4-2-2.6-3-3.9-1,1.3-2.4,2.5-2.8,4.1-3.1,11.3-6,22.8-8.8,34.2-1,4.1-2.9,6.6-7.4,6.4s-6-3.1-6.7-6.8Q15.3,41.3,9,10.2c-.4-2-1.9-3.8-2.8-5.7-.6,2.1-1.7,4.1-1.8,6.1-.1,23.5,0,46.9,0,70.3,0,7.4,1.4,8.8,8.7,8.8H69.2a17.9,17.9,0,0,1,4,.1c.9.3,1.5,1.3,2.3,2s-1.3,1.7-2.2,2.1a13.6,13.6,0,0,1-3.5.1H12.7C3,94,0,91,0,81.1Z"/><path d="M90.4,95.2l-3.9-3.5c1.5-.6,2.9-1.8,4.5-1.9s2.2,1.2,3.4,1.9Z"/></svg>