<svg xmlns="http://www.w3.org/2000/svg" viewBox="0 0 72.2 77.9"><path d="M42.2,52.1h-12V70.6c-.1,5.6-1.6,7.2-7.1,7.2H6.6C2.3,77.9.1,76,.1,71.6c.1-12.4-.4-24.7.3-37A18.5,18.5,0,0,1,6,23C14.5,15.3,23.9,8.6,32.9,1.4c2.4-1.9,4.2-1.9,6.6,0,8.9,7.2,18,14.3,27,21.4a14.9,14.9,0,0,1,5.7,12.3c0,12-.1,24,0,36,.1,4.5-1.9,6.8-6.5,6.8s-11.3-.1-17,0-6.6-2.2-6.6-6.8C42.3,64.9,42.2,58.8,42.2,52.1Zm6,19.4h18c0-12.5.1-24.7-.1-36.9a9.5,9.5,0,0,0-2.7-6.2C54.6,21,45.4,13.8,36.2,6.5c-9,7.1-17.7,13.8-26.2,20.9a9.5,9.5,0,0,0-3.6,6.2c-.3,12.6-.2,25.2-.2,37.9h18V61.2c0-15.2.6-15.9,15.7-15.4,5.7.2,8.2,2.6,8.3,8.3Z"/><path class="a" d="M48.2,71.5V54.1c-.1-5.7-2.6-8.1-8.3-8.3-15.1-.5-15.7.2-15.7,15.4V71.5H6.2c0-12.7-.1-25.3.2-37.9A9.5,9.5,0,0,1,10,27.4c8.5-7.1,17.2-13.8,26.2-20.9C45.4,13.8,54.6,21,63.4,28.4a9.5,9.5,0,0,1,2.7,6.2c.2,12.2.1,24.4.1,36.9Z"/></svg>