<svg xmlns="http://www.w3.org/2000/svg" viewBox="0 0 79.1 54.6"><title>services</title><path d="M5.9,49.2,0,32.5c6.3-2.4,12.2-5.3,18.5-6.6,3.9-.8,9.2-.4,12.3,1.8C36.9,32,42.7,35.4,50.7,34v6c-6.8.5-13.4.6-18.5-4.2s-11.3-5.7-17.9-2.4c-2,1-4.2,1.7-6.6,2.7l1.7,4.7c.5.1.7.2.8.1,8.5-5.3,16.1-2.7,23.2,2.8s12.3,4.5,19.2,1S68.4,38,76.7,34.6c.9,1.9,1.6,3.5,2.4,5.4-11.8,4.9-23.3,9.8-34.9,14.4a6.8,6.8,0,0,1-4.6-.5,139.9,139.9,0,0,1-12.6-7c-4.2-2.7-8-3.6-12.5-1C12.1,47.3,9.2,47.9,5.9,49.2Z"/><path d="M53.7,29.8c-3.5-4.4-7.2-8.7-10.6-13.3S38.9,6.7,42.2,3,49-.9,55.5,2.9C59.2.6,62.9-1.7,67.2,1.8s5.5,7.4,2.4,11.7S60.7,23.6,56.2,28.7ZM56,25.4c4.2-5.6,8.1-10.3,11.2-15.5.7-1.1-.7-4.5-2.1-5.7s-3.9-.4-5.7.2-2.7,2-4,3.2L54,6.5c-2.4-2.7-5-5.1-8.8-2.1s-2.5,6.5,0,9.5S51.6,20.8,56,25.4Z"/></svg>